<svg width="30" height="30" viewBox="0 0 30 30" fill="none" xmlns="http://www.w3.org/2000/svg">
<path d="M29.375 2.37606H25.7231V0.625C25.7231 0.279813 25.4433 0 25.0981 0H20.8213C20.4761 0 20.1963 0.279813 20.1963 0.625V2.37606H9.80369V0.625C9.80369 0.279813 9.52381 0 9.17869 0H4.90188C4.55675 0 4.27688 0.279813 4.27688 0.625V2.37606H0.625C0.279813 2.37606 0 2.65587 0 3.00106V29.375C0 29.7202 0.279813 30 0.625 30H29.375C29.7201 30 30 29.7202 30 29.375V3.00106C30 2.65587 29.7201 2.37606 29.375 2.37606ZM21.4463 1.25H24.4732V5.22731H21.4463V1.25ZM5.52688 1.25H8.55375V5.22731H5.52688V1.25ZM28.75 28.75H1.25V9.80369H28.75V28.75ZM28.75 8.55375H1.25V3.62606H4.27688V5.85231C4.27688 6.1975 4.55675 6.47731 4.90188 6.47731H9.17875C9.52388 6.47731 9.80375 6.1975 9.80375 5.85231V3.62606H20.1963V5.85231C20.1963 6.1975 20.4762 6.47731 20.8213 6.47731H25.0982C25.4433 6.47731 25.7232 6.1975 25.7232 5.85231V3.62606H28.75V8.55375Z" fill="#B80000"/>
<path d="M3.06106 27.7498H26.4639C26.7939 27.7498 27.0616 27.4822 27.0616 27.1521V13.0649C27.0615 12.7349 26.7939 12.4673 26.4639 12.4673H3.06106C2.731 12.4673 2.46338 12.7349 2.46338 13.065V27.1521C2.46338 27.4821 2.73094 27.7498 3.06106 27.7498ZM25.8662 26.5544H22.2901V22.7511H25.8662V26.5544ZM25.8662 21.5557H22.2901V18.6612H25.8662V21.5557ZM22.29 13.6626H25.8662V17.4659H22.29V13.6626ZM17.7458 13.6626H21.0947V17.4659H17.7458V13.6626ZM17.7458 18.6612H21.0947V21.5557H17.7458V18.6612ZM17.7458 22.7511H21.0947V26.5544H17.7458V22.7511ZM12.7471 13.6626H16.5504V17.4659H12.7471V13.6626ZM12.7471 18.6612H16.5504V21.5557H12.7471V18.6612ZM16.5504 22.7511V26.5544H12.7471V22.7511H16.5504ZM8.20288 13.6626H11.5518V17.4659H8.20288V13.6626ZM8.20288 18.6612H11.5518V21.5557H8.20288V18.6612ZM8.20288 22.7511H11.5518V26.5544H8.20288V22.7511ZM3.65869 13.6626H7.00756V17.4659H3.65869V13.6626ZM3.65869 18.6612H7.00756V21.5557H3.65869V18.6612ZM3.65869 22.7511H7.00756V26.5544H3.65869V22.7511Z" fill="#B80000"/>
</svg>
