<svg width="23" height="30" viewBox="0 0 23 30" fill="none" xmlns="http://www.w3.org/2000/svg">
<path fill-rule="evenodd" clip-rule="evenodd" d="M0 11.502C0 5.15426 5.11866 0 11.4431 0C17.7676 0 22.8863 5.15426 22.8863 11.502C22.8863 14.5589 20.9843 18.478 17.497 23.1771L17.4915 23.1846L16.6528 24.2901C15.6324 25.6074 14.4869 26.9927 13.217 28.4458L13.2129 28.4505L12.1018 29.7037C11.9354 29.8914 11.6969 29.9991 11.4462 30C11.1954 30.0009 10.9561 29.8947 10.7885 29.7082C9.06411 27.7898 7.54529 25.9836 6.23351 24.2901L6.22809 24.2831L5.38921 23.1772C1.9019 18.4781 0 14.5589 0 11.502ZM11.4431 1.76048C6.10017 1.76048 1.76048 6.1173 1.76048 11.502C1.76048 13.9408 3.33493 17.4541 6.80016 22.1242L7.62801 23.2155C8.74064 24.6518 10.0114 26.1782 11.4413 27.795L11.8914 27.2873C11.8921 27.2865 11.8928 27.2857 11.8935 27.2849C13.1421 25.856 14.2635 24.4997 15.2583 23.2155L16.0861 22.1242C19.5514 17.4541 21.1258 13.9408 21.1258 11.502C21.1258 6.1173 16.7861 1.76048 11.4431 1.76048ZM11.4431 7.92218C9.49857 7.92218 7.92218 9.49857 7.92218 11.4431C7.92218 13.3877 9.49857 14.9641 11.4431 14.9641C13.3877 14.9641 14.9641 13.3877 14.9641 11.4431C14.9641 9.49857 13.3877 7.92218 11.4431 7.92218ZM6.16169 11.4431C6.16169 8.52628 8.52628 6.16169 11.4431 6.16169C14.36 6.16169 16.7246 8.52628 16.7246 11.4431C16.7246 14.36 14.36 16.7246 11.4431 16.7246C8.52628 16.7246 6.16169 14.36 6.16169 11.4431Z" fill="#B80000"/>
</svg>
