<svg width="30" height="21" viewBox="0 0 30 21" fill="none" xmlns="http://www.w3.org/2000/svg">
<path d="M27.9546 0H2.04545C0.886348 0 0 0.886348 0 2.04545V18.4091C0 19.5682 0.886348 20.4546 2.04545 20.4546H27.9546C29.1137 20.4546 30 19.5682 30 18.4091V2.04545C30 0.886348 29.1137 0 27.9546 0ZM28.6363 18.409C28.6363 18.8181 28.3636 19.0908 27.9546 19.0908H2.04545C1.63635 19.0908 1.36365 18.8181 1.36365 18.409V2.04545C1.36365 1.63635 1.63641 1.36365 2.04545 1.36365H27.9546C28.3637 1.36365 28.6363 1.63641 28.6363 2.04545V18.409Z" fill="#B80000"/>
<path d="M8.5909 10.3636C8.31814 10.159 7.8409 10.2272 7.63635 10.4999L2.86365 16.6363C2.6591 16.9091 2.6591 17.3863 3 17.5909C3.13635 17.6591 3.27275 17.7272 3.4091 17.7272C3.61365 17.7272 3.8182 17.659 3.95455 17.4545L8.7273 11.3181C8.9318 11.0455 8.9318 10.5681 8.5909 10.3636Z" fill="#B80000"/>
<path d="M27.1363 16.6363L22.3636 10.5C22.159 10.2272 21.6818 10.1591 21.409 10.3637C21.1363 10.5682 21.0681 11.0454 21.2727 11.3182L26.0455 17.4546C26.1818 17.6591 26.3863 17.7273 26.5909 17.7273C26.7272 17.7273 26.8637 17.6591 27 17.591C27.2728 17.3863 27.3409 16.909 27.1363 16.6363Z" fill="#B80000"/>
<path d="M27.1363 2.9318C26.8637 2.65904 26.4545 2.65904 26.1818 2.86359L16.2955 10.9772C15.5454 11.5909 14.4546 11.5909 13.7046 10.9772L3.8182 2.86359C3.54545 2.59084 3.0682 2.65904 2.86365 2.9318C2.6591 3.20455 2.6591 3.6818 2.93186 3.88635L12.8182 12C13.4319 12.5455 14.1819 12.75 15 12.75C15.8181 12.75 16.5682 12.4772 17.1818 12L27.0681 3.88635C27.3409 3.61359 27.4091 3.20449 27.1363 2.9318Z" fill="#B80000"/>
</svg>
