<svg width="30" height="30" viewBox="0 0 30 30" fill="none" xmlns="http://www.w3.org/2000/svg">
<path d="M23.6876 18.5839C23.0735 17.9444 22.3327 17.6025 21.5475 17.6025C20.7687 17.6025 20.0216 17.9381 19.3821 18.5776L17.3813 20.5721C17.2166 20.4834 17.052 20.4011 16.8937 20.3188C16.6658 20.2048 16.4505 20.0972 16.2669 19.9832C14.3927 18.7929 12.6895 17.2416 11.0559 15.2345C10.2644 14.234 9.73256 13.3919 9.34633 12.5371C9.86553 12.0623 10.3467 11.5684 10.8153 11.0935C10.9926 10.9162 11.1699 10.7326 11.3471 10.5553C12.6768 9.22567 12.6768 7.50344 11.3471 6.17378L9.61859 4.44523C9.42231 4.24894 9.21969 4.04633 9.02974 3.84371C8.64984 3.45115 8.25094 3.04592 7.83938 2.66602C7.22521 2.05817 6.49073 1.73526 5.71826 1.73526C4.94579 1.73526 4.19865 2.05817 3.56548 2.66602C3.55915 2.67235 3.55915 2.67235 3.55282 2.67868L1.40003 4.85046C0.589576 5.66091 0.127361 6.64866 0.026054 7.7947C-0.125907 9.64356 0.41862 11.3658 0.836513 12.4928C1.86225 15.2598 3.39452 17.8241 5.68027 20.5721C8.45356 23.8836 11.7904 26.4986 15.6021 28.3411C17.0583 29.0312 19.0022 29.848 21.174 29.9873C21.3069 29.9937 21.4462 30 21.5729 30C23.0355 30 24.2638 29.4745 25.2263 28.4297C25.2326 28.4171 25.2452 28.4107 25.2516 28.3981C25.5808 27.9992 25.9607 27.6383 26.3596 27.252C26.6319 26.9924 26.9105 26.7202 27.1827 26.4352C27.8096 25.7831 28.1388 25.0233 28.1388 24.2445C28.1388 23.4593 27.8033 22.7059 27.1638 22.0727L23.6876 18.5839ZM25.9544 25.2512C25.9481 25.2575 25.9481 25.2512 25.9544 25.2512C25.7075 25.5171 25.4542 25.7578 25.1819 26.0237C24.7704 26.4163 24.3525 26.8278 23.9599 27.29C23.3204 27.9739 22.5669 28.2968 21.5792 28.2968C21.4842 28.2968 21.3829 28.2968 21.2879 28.2904C19.4074 28.1701 17.6599 27.4357 16.3492 26.8088C12.7654 25.0739 9.61859 22.6109 7.0036 19.4894C4.84448 16.887 3.40085 14.481 2.44477 11.8976C1.85592 10.3211 1.64064 9.0927 1.73562 7.934C1.79893 7.19319 2.08386 6.57901 2.60939 6.05348L4.7685 3.89437C5.07876 3.60311 5.40801 3.44482 5.73092 3.44482C6.12982 3.44482 6.45274 3.68542 6.65535 3.88804C6.66168 3.89437 6.66802 3.9007 6.67435 3.90703C7.06058 4.26794 7.42782 4.64151 7.81405 5.04041C8.01034 5.24302 8.21295 5.44564 8.41557 5.65458L10.1441 7.38314C10.8153 8.0543 10.8153 8.67481 10.1441 9.34597C9.9605 9.52959 9.78322 9.71321 9.5996 9.89049C9.06773 10.435 8.5612 10.9416 8.01034 11.4354C7.99767 11.4481 7.98501 11.4544 7.97868 11.4671C7.43415 12.0116 7.53546 12.5435 7.64943 12.9044C7.65576 12.9234 7.66209 12.9424 7.66843 12.9614C8.11798 14.0504 8.75115 15.0762 9.71357 16.2982L9.7199 16.3045C11.4675 18.4573 13.31 20.1352 15.3425 21.4205C15.6021 21.5852 15.868 21.7181 16.1213 21.8448C16.3492 21.9587 16.5645 22.0664 16.7481 22.1803C16.7734 22.193 16.7987 22.212 16.8241 22.2247C17.0394 22.3323 17.242 22.383 17.4509 22.383C17.9764 22.383 18.3057 22.0537 18.4133 21.9461L20.5788 19.7806C20.7941 19.5653 21.136 19.3057 21.5349 19.3057C21.9274 19.3057 22.2503 19.5527 22.4466 19.768C22.453 19.7743 22.453 19.7743 22.4593 19.7806L25.9481 23.2694C26.6002 23.9152 26.6002 24.5801 25.9544 25.2512Z" fill="#B80000"/>
<path d="M16.1909 7.1362C17.8498 7.4148 19.3568 8.19993 20.5598 9.40295C21.7628 10.606 22.5416 12.1129 22.8265 13.7718C22.8962 14.1897 23.2571 14.481 23.6686 14.481C23.7193 14.481 23.7636 14.4747 23.8143 14.4683C24.2828 14.3923 24.5931 13.9491 24.5171 13.4806C24.1752 11.4734 23.2254 9.64356 21.7755 8.1936C20.3255 6.74364 18.4956 5.79388 16.4885 5.45197C16.0199 5.37599 15.5831 5.68624 15.5007 6.14846C15.4184 6.61067 15.7224 7.06022 16.1909 7.1362Z" fill="#B80000"/>
<path d="M29.9434 13.2336C29.3799 9.92849 27.8223 6.92092 25.4289 4.52754C23.0355 2.13415 20.0279 0.576554 16.7228 0.0130316C16.2606 -0.0692806 15.8237 0.247305 15.7414 0.709519C15.6654 1.17807 15.9756 1.61495 16.4442 1.69727C19.3947 2.19747 22.0857 3.59678 24.2258 5.73056C26.366 7.87068 27.7589 10.5617 28.2591 13.5122C28.3288 13.9301 28.6897 14.2214 29.1013 14.2214C29.1519 14.2214 29.1962 14.2151 29.2469 14.2087C29.7091 14.1391 30.0257 13.6959 29.9434 13.2336Z" fill="#B80000"/>
</svg>
